<svg xmlns="http://www.w3.org/2000/svg" width="1150" height="950" viewBox="0 0 1150 950"><rect width="100%" height="100%" fill="white"/><line x1="210.0" y1="102.0" x2="861.0" y2="102.0" stroke="#111111" stroke-width="2.4" opacity="1.0"/><line x1="210.0" y1="660.0" x2="721.5" y2="660.0" stroke="#111111" stroke-width="2.4" opacity="1.0"/><line x1="861.0" y1="660.0" x2="861.0" y2="660.0" stroke="#111111" stroke-width="2.4" opacity="1.0"/><line x1="210.0" y1="102.0" x2="210.0" y2="241.5" stroke="#111111" stroke-width="2.4" opacity="1.0"/><line x1="210.0" y1="474.0" x2="210.0" y2="660.0" stroke="#111111" stroke-width="2.4" opacity="1.0"/><line x1="861.0" y1="102.0" x2="861.0" y2="660.0" stroke="#111111" stroke-width="2.4" opacity="1.0"/><rect x="204.0" y="241.5" width="12.0" height="232.5" fill="white" stroke="#111111" stroke-width="0.8"/><line x1="210.0" y1="241.5" x2="210.0" y2="474.0" stroke="#111111" stroke-width="0.8" opacity="1.0"/><line x1="206.0" y1="357.8" x2="214.0" y2="357.8" stroke="#111111" stroke-width="0.8" opacity="1.0"/><text x="184.0" y="361.8" font-family="Arial, sans-serif" font-size="10" fill="#111111" text-anchor="middle" font-weight="normal">WIN-1</text><line x1="721.5" y1="660.0" x2="861.0" y2="660.0" stroke="#111111" stroke-width="2.0" opacity="1.0"/><path d="M 861.0 660.0 A 139.5 139.5 0 0 1 721.5 520.5" stroke="#111111" stroke-width="0.6" fill="none" stroke-linecap="butt" opacity="1.0"/><line x1="861.0" y1="660.0" x2="721.5" y2="520.5" stroke="#111111" stroke-width="0.6" opacity="1.0"/><text x="791.2" y="676.0" font-family="Arial, sans-serif" font-size="10" fill="#111111" text-anchor="middle" font-weight="normal">ENTRANCE 900</text><rect x="210.0" y="195.0" width="93.0" height="93.0" fill="white" stroke="#111111" stroke-width="1.1"/><text x="256.5" y="245.5" font-family="Arial, sans-serif" font-size="11" fill="#111111" text-anchor="middle" font-weight="bold">B1</text><rect x="210.0" y="288.0" width="93.0" height="139.5" fill="white" stroke="#111111" stroke-width="1.1"/><text x="256.5" y="361.8" font-family="Arial, sans-serif" font-size="11" fill="#111111" text-anchor="middle" font-weight="bold">B2</text><rect x="210.0" y="427.5" width="93.0" height="93.0" fill="white" stroke="#111111" stroke-width="1.1"/><text x="256.5" y="478.0" font-family="Arial, sans-serif" font-size="11" fill="#111111" text-anchor="middle" font-weight="bold">B3</text><rect x="210.0" y="520.5" width="93.0" height="93.0" fill="white" stroke="#111111" stroke-width="1.1"/><text x="256.5" y="571.0" font-family="Arial, sans-serif" font-size="11" fill="#111111" text-anchor="middle" font-weight="bold">B4</text><rect x="210.0" y="613.5" width="46.5" height="46.5" fill="white" stroke="#111111" stroke-width="1.1"/><text x="233.2" y="640.8" font-family="Arial, sans-serif" font-size="11" fill="#111111" text-anchor="middle" font-weight="bold">B5</text><rect x="303.0" y="102.0" width="46.5" height="93.0" fill="white" stroke="#111111" stroke-width="1.1"/><text x="326.2" y="152.5" font-family="Arial, sans-serif" font-size="11" fill="#111111" text-anchor="middle" font-weight="bold">A1</text><rect x="349.5" y="102.0" width="93.0" height="93.0" fill="white" stroke="#111111" stroke-width="1.1"/><text x="396.0" y="152.5" font-family="Arial, sans-serif" font-size="11" fill="#111111" text-anchor="middle" font-weight="bold">A2</text><rect x="442.5" y="102.0" width="93.0" height="93.0" fill="white" stroke="#111111" stroke-width="1.1"/><text x="489.0" y="152.5" font-family="Arial, sans-serif" font-size="11" fill="#111111" text-anchor="middle" font-weight="bold">A3</text><rect x="535.5" y="102.0" width="93.0" height="93.0" fill="white" stroke="#111111" stroke-width="1.1"/><text x="582.0" y="152.5" font-family="Arial, sans-serif" font-size="11" fill="#111111" text-anchor="middle" font-weight="bold">A4</text><line x1="538.5" y1="107.0" x2="625.5" y2="107.0" stroke="#111111" stroke-width="0.4" opacity="1.0"/><line x1="538.5" y1="116.0" x2="625.5" y2="116.0" stroke="#111111" stroke-width="0.4" opacity="1.0"/><line x1="538.5" y1="125.0" x2="625.5" y2="125.0" stroke="#111111" stroke-width="0.4" opacity="1.0"/><line x1="538.5" y1="134.0" x2="625.5" y2="134.0" stroke="#111111" stroke-width="0.4" opacity="1.0"/><line x1="538.5" y1="143.0" x2="625.5" y2="143.0" stroke="#111111" stroke-width="0.4" opacity="1.0"/><line x1="538.5" y1="152.0" x2="625.5" y2="152.0" stroke="#111111" stroke-width="0.4" opacity="1.0"/><line x1="538.5" y1="161.0" x2="625.5" y2="161.0" stroke="#111111" stroke-width="0.4" opacity="1.0"/><line x1="538.5" y1="170.0" x2="625.5" y2="170.0" stroke="#111111" stroke-width="0.4" opacity="1.0"/><line x1="538.5" y1="179.0" x2="625.5" y2="179.0" stroke="#111111" stroke-width="0.4" opacity="1.0"/><line x1="538.5" y1="188.0" x2="625.5" y2="188.0" stroke="#111111" stroke-width="0.4" opacity="1.0"/><rect x="628.5" y="102.0" width="93.0" height="93.0" fill="white" stroke="#111111" stroke-width="1.1"/><text x="675.0" y="152.5" font-family="Arial, sans-serif" font-size="11" fill="#111111" text-anchor="middle" font-weight="bold">A5</text><line x1="631.5" y1="107.0" x2="718.5" y2="107.0" stroke="#111111" stroke-width="0.4" opacity="1.0"/><line x1="631.5" y1="116.0" x2="718.5" y2="116.0" stroke="#111111" stroke-width="0.4" opacity="1.0"/><line x1="631.5" y1="125.0" x2="718.5" y2="125.0" stroke="#111111" stroke-width="0.4" opacity="1.0"/><line x1="631.5" y1="134.0" x2="718.5" y2="134.0" stroke="#111111" stroke-width="0.4" opacity="1.0"/><line x1="631.5" y1="143.0" x2="718.5" y2="143.0" stroke="#111111" stroke-width="0.4" opacity="1.0"/><line x1="631.5" y1="152.0" x2="718.5" y2="152.0" stroke="#111111" stroke-width="0.4" opacity="1.0"/><line x1="631.5" y1="161.0" x2="718.5" y2="161.0" stroke="#111111" stroke-width="0.4" opacity="1.0"/><line x1="631.5" y1="170.0" x2="718.5" y2="170.0" stroke="#111111" stroke-width="0.4" opacity="1.0"/><line x1="631.5" y1="179.0" x2="718.5" y2="179.0" stroke="#111111" stroke-width="0.4" opacity="1.0"/><line x1="631.5" y1="188.0" x2="718.5" y2="188.0" stroke="#111111" stroke-width="0.4" opacity="1.0"/><rect x="210.0" y="660.0" width="96.1" height="-465.0" fill="none" stroke="#111111" stroke-width="0.5"/><rect x="303.0" y="102.0" width="418.5" height="96.1" fill="none" stroke="#111111" stroke-width="0.5"/><circle cx="256.5" cy="357.8" r="23.2" fill="white" stroke="#111111" stroke-width="1.0"/><circle cx="256.5" cy="357.8" r="9.3" fill="white" stroke="#111111" stroke-width="0.6"/><rect x="156.0" y="-61.5" width="480.0" height="420.0" fill="white" stroke="#111111" stroke-width="1.0"/><circle cx="276.0" cy="58.5" r="8.5" fill="white" stroke="#111111" stroke-width="0.7"/><circle cx="276.0" cy="238.5" r="8.5" fill="white" stroke="#111111" stroke-width="0.7"/><circle cx="516.0" cy="58.5" r="8.5" fill="white" stroke="#111111" stroke-width="0.7"/><circle cx="516.0" cy="238.5" r="8.5" fill="white" stroke="#111111" stroke-width="0.7"/><text x="582.0" y="148.5" font-family="Arial, sans-serif" font-size="9" fill="#111111" text-anchor="middle" font-weight="normal">FRIDGE</text><text x="256.5" y="474.0" font-family="Arial, sans-serif" font-size="9" fill="#111111" text-anchor="middle" font-weight="normal">DW</text><text x="396.0" y="182.6" font-family="Arial, sans-serif" font-size="9" fill="#111111" text-anchor="middle" font-weight="normal">OVEN</text><rect x="349.5" y="117.5" width="93.0" height="-15.5" fill="none" stroke="#111111" stroke-width="0.5"/><line x1="256.5" y1="357.8" x2="396.0" y2="148.5" stroke="#333333" stroke-width="1.2" opacity="1.0" stroke-dasharray="6 4"/><line x1="396.0" y1="148.5" x2="582.0" y2="148.5" stroke="#333333" stroke-width="1.2" opacity="1.0" stroke-dasharray="6 4"/><line x1="582.0" y1="148.5" x2="256.5" y2="357.8" stroke="#333333" stroke-width="1.2" opacity="1.0" stroke-dasharray="6 4"/><circle cx="256.5" cy="357.8" r="3.5" fill="#111111"/><circle cx="396.0" cy="148.5" r="3.5" fill="#111111"/><circle cx="582.0" cy="148.5" r="3.5" fill="#111111"/><text x="246.5" y="347.8" font-family="Arial, sans-serif" font-size="11" fill="#111111" text-anchor="end" font-weight="bold">S</text><text x="388.0" y="168.5" font-family="Arial, sans-serif" font-size="11" fill="#111111" text-anchor="end" font-weight="bold">H</text><text x="590.0" y="168.5" font-family="Arial, sans-serif" font-size="11" fill="#111111" text-anchor="start" font-weight="bold">F</text><line x1="210.0" y1="530.0" x2="861.0" y2="530.0" stroke="#111111" stroke-width="0.7" opacity="1.0"/><line x1="210.0" y1="526.0" x2="210.0" y2="534.0" stroke="#111111" stroke-width="0.7" opacity="1.0"/><line x1="861.0" y1="526.0" x2="861.0" y2="534.0" stroke="#111111" stroke-width="0.7" opacity="1.0"/><line x1="210.0" y1="530.0" x2="203.0" y2="525.0" stroke="#111111" stroke-width="0.7" opacity="1.0"/><line x1="861.0" y1="530.0" x2="868.0" y2="525.0" stroke="#111111" stroke-width="0.7" opacity="1.0"/><text x="535.5" y="524.0" font-family="Arial, sans-serif" font-size="12" fill="#111111" text-anchor="middle" font-weight="normal">4200</text><line x1="210.0" y1="700.0" x2="303.0" y2="700.0" stroke="#111111" stroke-width="0.7" opacity="1.0"/><line x1="210.0" y1="696.0" x2="210.0" y2="704.0" stroke="#111111" stroke-width="0.7" opacity="1.0"/><line x1="303.0" y1="696.0" x2="303.0" y2="704.0" stroke="#111111" stroke-width="0.7" opacity="1.0"/><line x1="210.0" y1="700.0" x2="203.0" y2="695.0" stroke="#111111" stroke-width="0.7" opacity="1.0"/><line x1="303.0" y1="700.0" x2="310.0" y2="695.0" stroke="#111111" stroke-width="0.7" opacity="1.0"/><text x="256.5" y="694.0" font-family="Arial, sans-serif" font-size="12" fill="#111111" text-anchor="middle" font-weight="normal">600</text><line x1="901.0" y1="102.0" x2="901.0" y2="660.0" stroke="#111111" stroke-width="0.7" opacity="1.0"/><line x1="897.0" y1="102.0" x2="905.0" y2="102.0" stroke="#111111" stroke-width="0.7" opacity="1.0"/><line x1="897.0" y1="660.0" x2="905.0" y2="660.0" stroke="#111111" stroke-width="0.7" opacity="1.0"/><line x1="901.0" y1="102.0" x2="896.0" y2="95.0" stroke="#111111" stroke-width="0.7" opacity="1.0"/><line x1="901.0" y1="660.0" x2="906.0" y2="667.0" stroke="#111111" stroke-width="0.7" opacity="1.0"/><text x="895.0" y="385.0" font-family="Arial, sans-serif" font-size="12" fill="#111111" text-anchor="middle" font-weight="normal">3600</text><line x1="761.5" y1="660.0" x2="901.0" y2="660.0" stroke="#111111" stroke-width="0.7" opacity="1.0"/><line x1="761.5" y1="656.0" x2="761.5" y2="664.0" stroke="#111111" stroke-width="0.7" opacity="1.0"/><line x1="901.0" y1="656.0" x2="901.0" y2="664.0" stroke="#111111" stroke-width="0.7" opacity="1.0"/><line x1="761.5" y1="660.0" x2="754.5" y2="655.0" stroke="#111111" stroke-width="0.7" opacity="1.0"/><line x1="901.0" y1="660.0" x2="908.0" y2="655.0" stroke="#111111" stroke-width="0.7" opacity="1.0"/><text x="831.2" y="654.0" font-family="Arial, sans-serif" font-size="12" fill="#111111" text-anchor="middle" font-weight="normal">900</text><line x1="303.0" y1="700.0" x2="535.5" y2="700.0" stroke="#111111" stroke-width="0.7" opacity="1.0"/><line x1="303.0" y1="696.0" x2="303.0" y2="704.0" stroke="#111111" stroke-width="0.7" opacity="1.0"/><line x1="535.5" y1="696.0" x2="535.5" y2="704.0" stroke="#111111" stroke-width="0.7" opacity="1.0"/><line x1="303.0" y1="700.0" x2="296.0" y2="695.0" stroke="#111111" stroke-width="0.7" opacity="1.0"/><line x1="535.5" y1="700.0" x2="542.5" y2="695.0" stroke="#111111" stroke-width="0.7" opacity="1.0"/><text x="419.2" y="694.0" font-family="Arial, sans-serif" font-size="12" fill="#111111" text-anchor="middle" font-weight="normal">1500</text><line x1="535.5" y1="700.0" x2="721.5" y2="700.0" stroke="#111111" stroke-width="0.7" opacity="1.0"/><line x1="535.5" y1="696.0" x2="535.5" y2="704.0" stroke="#111111" stroke-width="0.7" opacity="1.0"/><line x1="721.5" y1="696.0" x2="721.5" y2="704.0" stroke="#111111" stroke-width="0.7" opacity="1.0"/><line x1="535.5" y1="700.0" x2="528.5" y2="695.0" stroke="#111111" stroke-width="0.7" opacity="1.0"/><line x1="721.5" y1="700.0" x2="728.5" y2="695.0" stroke="#111111" stroke-width="0.7" opacity="1.0"/><text x="628.5" y="694.0" font-family="Arial, sans-serif" font-size="12" fill="#111111" text-anchor="middle" font-weight="normal">1200</text><text x="876.5" y="649.0" font-family="Arial, sans-serif" font-size="14" fill="#111111" text-anchor="middle" font-weight="bold">N</text><path d="M 876.5 629.0 l -8 -20 l 8 8 l 8 -8 Z" stroke="#111111" stroke-width="1" fill="none" stroke-linecap="butt" opacity="1.0"/><path d="M 876.5 629.0 l -8 -20 l 8 8 l 8 -8 Z" stroke="#111111" stroke-width="0" fill="#111111" stroke-linecap="butt" opacity="1.0"/><text x="30.0" y="40.0" font-family="Arial, sans-serif" font-size="12" fill="#111111" text-anchor="start" font-weight="bold">CABINET LEGEND</text><text x="30.0" y="60.0" font-family="Arial, sans-serif" font-size="10" fill="#111111" text-anchor="start" font-weight="bold">A1</text><text x="100.0" y="60.0" font-family="Arial, sans-serif" font-size="10" fill="#111111" text-anchor="start" font-weight="normal">Corner blind base 300</text><text x="30.0" y="77.0" font-family="Arial, sans-serif" font-size="10" fill="#111111" text-anchor="start" font-weight="bold">A2</text><text x="100.0" y="77.0" font-family="Arial, sans-serif" font-size="10" fill="#111111" text-anchor="start" font-weight="normal">Oven base 600 + drawer</text><text x="30.0" y="94.0" font-family="Arial, sans-serif" font-size="10" fill="#111111" text-anchor="start" font-weight="bold">A3</text><text x="100.0" y="94.0" font-family="Arial, sans-serif" font-size="10" fill="#111111" text-anchor="start" font-weight="normal">Drawer base 600</text><text x="30.0" y="111.0" font-family="Arial, sans-serif" font-size="10" fill="#111111" text-anchor="start" font-weight="bold">A4</text><text x="100.0" y="111.0" font-family="Arial, sans-serif" font-size="10" fill="#111111" text-anchor="start" font-weight="normal">Tall fridge column 600</text><text x="30.0" y="128.0" font-family="Arial, sans-serif" font-size="10" fill="#111111" text-anchor="start" font-weight="bold">A5</text><text x="100.0" y="128.0" font-family="Arial, sans-serif" font-size="10" fill="#111111" text-anchor="start" font-weight="normal">Tall pantry column 600</text><text x="30.0" y="145.0" font-family="Arial, sans-serif" font-size="10" fill="#111111" text-anchor="start" font-weight="bold">B1/B4</text><text x="100.0" y="145.0" font-family="Arial, sans-serif" font-size="10" fill="#111111" text-anchor="start" font-weight="normal">Drawer base 600</text><text x="30.0" y="162.0" font-family="Arial, sans-serif" font-size="10" fill="#111111" text-anchor="start" font-weight="bold">B2</text><text x="100.0" y="162.0" font-family="Arial, sans-serif" font-size="10" fill="#111111" text-anchor="start" font-weight="normal">Sink base 900</text><text x="30.0" y="179.0" font-family="Arial, sans-serif" font-size="10" fill="#111111" text-anchor="start" font-weight="bold">B3</text><text x="100.0" y="179.0" font-family="Arial, sans-serif" font-size="10" fill="#111111" text-anchor="start" font-weight="normal">Dishwasher base 600</text><text x="30.0" y="196.0" font-family="Arial, sans-serif" font-size="10" fill="#111111" text-anchor="start" font-weight="bold">B5</text><text x="100.0" y="196.0" font-family="Arial, sans-serif" font-size="10" fill="#111111" text-anchor="start" font-weight="normal">Filler 300</text><text x="30.0" y="213.0" font-family="Arial, sans-serif" font-size="10" fill="#111111" text-anchor="start" font-weight="bold">S1/S3</text><text x="100.0" y="213.0" font-family="Arial, sans-serif" font-size="10" fill="#111111" text-anchor="start" font-weight="normal">Wall cabinet 600 (to ceiling)</text><text x="30.0" y="230.0" font-family="Arial, sans-serif" font-size="10" fill="#111111" text-anchor="start" font-weight="bold">W1</text><text x="100.0" y="230.0" font-family="Arial, sans-serif" font-size="10" fill="#111111" text-anchor="start" font-weight="normal">Wall cabinet 600 (to ceiling)</text><rect x="860.0" y="890.0" width="260.0" height="34.0" fill="white" stroke="#111111" stroke-width="1"/><text x="875.0" y="910.0" font-family="Arial, sans-serif" font-size="14" fill="#111111" text-anchor="start" font-weight="bold">CONCEPT A - FLOOR PLAN</text><text x="875.0" y="924.0" font-family="Arial, sans-serif" font-size="10" fill="#111111" text-anchor="start" font-weight="normal">L-Shaped Kitchen 4200 x 3600 mm</text><text x="1090.0" y="910.0" font-family="Arial, sans-serif" font-size="10" fill="#111111" text-anchor="end" font-weight="normal">SCALE 1:50</text><text x="1090.0" y="924.0" font-family="Arial, sans-serif" font-size="10" fill="#111111" text-anchor="end" font-weight="normal">SHEET T-01</text></svg>